<svg width="43" height="184" viewBox="0 0 43 184" fill="none" xmlns="http://www.w3.org/2000/svg">
<path fill-rule="evenodd" clip-rule="evenodd" d="M40.4266 145.394C39.0458 145.394 37.9266 144.275 37.9266 142.894V142.418C37.9266 141.038 39.0458 139.918 40.4266 139.918C41.8073 139.918 42.9266 141.038 42.9266 142.418V142.894C42.9266 144.275 41.8073 145.394 40.4266 145.394ZM40.4266 125.896C39.0458 125.896 37.9266 124.777 37.9266 123.396V122.445C37.9266 121.064 39.0458 119.945 40.4266 119.945C41.8073 119.945 42.9266 121.064 42.9266 122.445V123.396C42.9266 124.777 41.8073 125.896 40.4266 125.896ZM40.4266 105.922C39.0458 105.922 37.9266 104.803 37.9266 103.422V102.471C37.9266 101.091 39.0458 99.9712 40.4266 99.9712C41.8073 99.9712 42.9266 101.091 42.9266 102.471V103.422C42.9266 104.803 41.8073 105.922 40.4266 105.922ZM40.4266 85.9488C39.0458 85.9488 37.9266 84.8295 37.9266 83.4488V82.4977C37.9266 81.117 39.0458 79.9977 40.4266 79.9977C41.8073 79.9977 42.9266 81.117 42.9266 82.4977V83.4488C42.9266 84.8295 41.8073 85.9488 40.4266 85.9488ZM40.4266 65.9753C39.0458 65.9753 37.9266 64.856 37.9266 63.4753V62.5242C37.9266 61.1434 39.0458 60.0242 40.4266 60.0242C41.8073 60.0242 42.9266 61.1434 42.9266 62.5242V63.4753C42.9266 64.856 41.8073 65.9753 40.4266 65.9753ZM40.4266 46.0017C39.0458 46.0017 37.9266 44.8824 37.9266 43.5017V42.5506C37.9266 41.1699 39.0458 40.0506 40.4266 40.0506C41.8073 40.0506 42.9266 41.1699 42.9266 42.5506V43.5017C42.9266 44.8824 41.8073 46.0017 40.4266 46.0017ZM40.4266 26.0282C39.0458 26.0282 37.9266 24.9089 37.9266 23.5282V22.5771C37.9266 21.1964 39.0458 20.0771 40.4266 20.0771C41.8073 20.0771 42.9266 21.1964 42.9266 22.5771V23.5282C42.9266 24.9089 41.8073 26.0282 40.4266 26.0282ZM40.4266 6.05466C39.0458 6.05466 37.9266 4.93536 37.9266 3.55466V3.0791C37.9266 1.69839 39.0458 0.579102 40.4266 0.579102C41.8073 0.579102 42.9266 1.69839 42.9266 3.0791V3.55466C42.9266 4.93536 41.8073 6.05466 40.4266 6.05466ZM21.6178 165.148C20.2371 165.148 19.1178 164.029 19.1178 162.648V162.173C19.1178 160.792 20.2371 159.673 21.6178 159.673C22.9985 159.673 24.1178 160.792 24.1178 162.173V162.648C24.1178 164.029 22.9985 165.148 21.6178 165.148ZM21.6178 145.65C20.2371 145.65 19.1178 144.531 19.1178 143.15V142.199C19.1178 140.819 20.2371 139.699 21.6178 139.699C22.9985 139.699 24.1178 140.819 24.1178 142.199V143.15C24.1178 144.531 22.9985 145.65 21.6178 145.65ZM21.6178 125.677C20.2371 125.677 19.1178 124.558 19.1178 123.177V122.226C19.1178 120.845 20.2371 119.726 21.6178 119.726C22.9985 119.726 24.1178 120.845 24.1178 122.226V123.177C24.1178 124.558 22.9985 125.677 21.6178 125.677ZM21.6178 105.703C20.2371 105.703 19.1178 104.584 19.1178 103.203V102.252C19.1178 100.872 20.2371 99.7523 21.6178 99.7523C22.9985 99.7523 24.1178 100.872 24.1178 102.252V103.203C24.1178 104.584 22.9985 105.703 21.6178 105.703ZM21.6178 85.7299C20.2371 85.7299 19.1178 84.6106 19.1178 83.2299V82.2787C19.1178 80.898 20.2371 79.7787 21.6178 79.7787C22.9985 79.7787 24.1178 80.898 24.1178 82.2787V83.2299C24.1178 84.6106 22.9985 85.7299 21.6178 85.7299ZM21.6178 65.7563C20.2371 65.7563 19.1178 64.637 19.1178 63.2563V62.3052C19.1178 60.9245 20.2371 59.8052 21.6178 59.8052C22.9985 59.8052 24.1178 60.9245 24.1178 62.3052V63.2563C24.1178 64.637 22.9985 65.7563 21.6178 65.7563ZM21.6178 45.7828C20.2371 45.7828 19.1178 44.6635 19.1178 43.2828V42.3316C19.1178 40.9509 20.2371 39.8316 21.6178 39.8316C22.9985 39.8316 24.1178 40.9509 24.1178 42.3316V43.2828C24.1178 44.6635 22.9985 45.7828 21.6178 45.7828ZM21.6178 25.8092C20.2371 25.8092 19.1178 24.6899 19.1178 23.3092V22.8337C19.1178 21.453 20.2371 20.3337 21.6178 20.3337C22.9985 20.3337 24.1178 21.453 24.1178 22.8337V23.3092C24.1178 24.6899 22.9985 25.8092 21.6178 25.8092ZM0.662231 181.505C0.662231 182.886 1.78152 184.005 3.16223 184.005C4.54294 184.005 5.66223 182.886 5.66223 181.505V181.03C5.66223 179.649 4.54294 178.53 3.16223 178.53C1.78152 178.53 0.662231 179.649 0.662231 181.03V181.505ZM0.662231 162.007C0.662231 163.388 1.78152 164.507 3.16223 164.507C4.54294 164.507 5.66223 163.388 5.66223 162.007V161.056C5.66223 159.675 4.54294 158.556 3.16223 158.556C1.78152 158.556 0.662231 159.675 0.662231 161.056V162.007ZM0.662231 142.034C0.662231 143.414 1.78152 144.534 3.16223 144.534C4.54294 144.534 5.66223 143.414 5.66223 142.034V141.082C5.66223 139.702 4.54294 138.582 3.16223 138.582C1.78152 138.582 0.662231 139.702 0.662231 141.082V142.034ZM0.662231 122.06C0.662231 123.441 1.78152 124.56 3.16223 124.56C4.54294 124.56 5.66223 123.441 5.66223 122.06V121.109C5.66223 119.728 4.54294 118.609 3.16223 118.609C1.78152 118.609 0.662231 119.728 0.662231 121.109V122.06ZM0.662231 102.087C0.662231 103.467 1.78152 104.587 3.16223 104.587C4.54294 104.587 5.66223 103.467 5.66223 102.087V101.135C5.66223 99.7547 4.54294 98.6354 3.16223 98.6354C1.78152 98.6354 0.662231 99.7547 0.662231 101.135V102.087ZM0.662231 82.113C0.662231 83.4937 1.78152 84.613 3.16223 84.613C4.54294 84.613 5.66223 83.4937 5.66223 82.113V81.1618C5.66223 79.7811 4.54294 78.6618 3.16223 78.6618C1.78152 78.6618 0.662231 79.7811 0.662231 81.1618V82.113ZM0.662231 62.1394C0.662231 63.5201 1.78152 64.6394 3.16223 64.6394C4.54294 64.6394 5.66223 63.5201 5.66223 62.1394V61.1883C5.66223 59.8076 4.54294 58.6883 3.16223 58.6883C1.78152 58.6883 0.662231 59.8076 0.662231 61.1883V62.1394ZM0.662231 42.1659C0.662231 43.5466 1.78152 44.6659 3.16223 44.6659C4.54294 44.6659 5.66223 43.5466 5.66223 42.1659V41.6903C5.66223 40.3096 4.54294 39.1903 3.16223 39.1903C1.78152 39.1903 0.662231 40.3096 0.662231 41.6903V42.1659Z" fill="url(#paint0_linear_2_1866)"/>
<defs>
<linearGradient id="paint0_linear_2_1866" x1="-2.6278" y1="-71.3527" x2="94.4817" y2="-68.9453" gradientUnits="userSpaceOnUse">
<stop stop-color="#3A8EF6"/>
<stop offset="1" stop-color="#6F3AFA"/>
</linearGradient>
</defs>
</svg>
